<svg xmlns="http://www.w3.org/2000/svg" viewBox="0 0 640 200" width="640" height="200">
<defs><clipPath id="emClip"><circle cx="100" cy="92" r="72"/></clipPath></defs>
<style>@import url('https://fonts.googleapis.com/css2?family=Playfair+Display:ital,wght@0,700;0,900;1,400&family=Space+Mono:wght@400;700&display=swap');.wm{font-family:'Playfair Display',Georgia,'Times New Roman',serif;font-weight:900}.tg{font-family:'Space Mono','Courier New',monospace;font-weight:400}</style>
<g transform="translate(14,8) scale(0.82)"><circle cx="100" cy="92" r="78" fill="none" stroke="#C4773B" stroke-width="2.6"/>
<circle cx="100" cy="92" r="67" fill="none" stroke="#E8D5B0" stroke-width="1" opacity="0.4"/>
<polygon points="100,6 93,22 107,22" fill="#C4773B"/>
<line x1="171" y1="92" x2="178" y2="92" stroke="#E8D5B0" stroke-width="1.6" opacity="0.6"/>
<line x1="22" y1="92" x2="29" y2="92" stroke="#E8D5B0" stroke-width="1.6" opacity="0.6"/>
<line x1="100" y1="163" x2="100" y2="170" stroke="#E8D5B0" stroke-width="1.6" opacity="0.6"/>
<g clip-path="url(#emClip)">
<line x1="100" y1="72" x2="100" y2="60" stroke="#E8D5B0" stroke-width="2.4"/>
<line x1="82" y1="78" x2="73" y2="67" stroke="#E8D5B0" stroke-width="2.4"/>
<line x1="118" y1="78" x2="127" y2="67" stroke="#E8D5B0" stroke-width="2.4"/>
<path d="M75,104 A25,25 0 0 1 125,104 Z" fill="#E8D5B0"/>
<path d="M28,106 Q72,84 100,102 Q138,124 172,103 L172,170 L28,170 Z" fill="#C4773B"/>
<path d="M28,132 Q74,112 118,128 Q150,138 172,124 L172,170 L28,170 Z" fill="#8A4F25"/>
</g></g>
<line x1="208" y1="48" x2="208" y2="152" stroke="#E8D5B0" stroke-width="0.8" opacity="0.3"/>
<text class="wm" x="232" y="100" font-size="54" fill="#E8D5B0">Sahra <tspan font-style="italic" fill="#C4773B">&amp;</tspan> Beyond</text>
<text class="tg" x="234" y="132" font-size="16" letter-spacing="6" fill="#6B7A99">UAE DESERT &amp; OUTDOOR EXPLORER</text>
</svg>
